<svg xmlns="http://www.w3.org/2000/svg" version="1.1" xmlns:xlink="http://www.w3.org/1999/xlink" xmlns:svgjs="http://svgjs.dev/svgjs" width="100" height="90" viewBox="0 0 1000 937"><g transform="matrix(1,0,0,1,0,0)"><svg viewBox="0 0 384 360" data-background-color="#ffffff" preserveAspectRatio="xMidYMid meet" height="937" width="1000" xmlns="http://www.w3.org/2000/svg" xmlns:xlink="http://www.w3.org/1999/xlink"><g id="tight-bounds" transform="matrix(1,0,0,1,0,0)"><svg viewBox="0 0 384 360" height="360" width="384"><g><svg></svg></g><g><svg viewBox="0 0 384 360" height="360" width="384"><g><path xmlns="http://www.w3.org/2000/svg" d="M362.354 145.441v-42.24c0-21.12-19.163-38.402-42.587-38.402h-93.208c-15.198 0-28.337-8.831-34.559-21.646-6.222 12.81-19.36 21.646-34.559 21.646h-93.208c-23.424 0-42.587 17.282-42.587 38.402v42.24c0 15.198-8.831 28.337-21.646 34.559 12.81 6.222 21.646 19.36 21.646 34.559v42.24c0 21.12 19.163 38.402 42.587 38.402h93.208c15.198 0 28.337 8.831 34.559 21.646 6.222-12.81 19.36-21.646 34.559-21.646h93.208c23.424 0 42.587-17.282 42.587-38.402v-42.24c0-15.198 8.831-28.337 21.646-34.559-12.81-6.222-21.646-19.36-21.646-34.559z" fill="#ed1703" fill-rule="nonzero" stroke="none" stroke-width="1" stroke-linecap="butt" stroke-linejoin="miter" stroke-miterlimit="10" stroke-dasharray="" stroke-dashoffset="0" font-family="none" font-weight="none" font-size="none" text-anchor="none" style="mix-blend-mode: normal" data-fill-palette-color="tertiary"></path></g><g transform="matrix(1,0,0,1,76.80000000000001,125.71721231766614)"><svg viewBox="0 0 230.39999999999998 108.56557536466774" height="108.56557536466774" width="230.39999999999998"><g><svg viewBox="0 0 230.39999999999998 108.56557536466774" height="108.56557536466774" width="230.39999999999998"><g><svg viewBox="0 0 230.39999999999998 108.56557536466774" height="108.56557536466774" width="230.39999999999998"><g id="textblocktransform"><svg viewBox="0 0 230.39999999999998 108.56557536466774" height="108.56557536466774" width="230.39999999999998" id="textblock"><g><svg viewBox="0 0 230.39999999999998 108.56557536466774" height="108.56557536466774" width="230.39999999999998"><g transform="matrix(1,0,0,1,0,0)"><svg width="230.39999999999998" viewBox="2.4989795684814453 -35.04999923706055 75.551025390625 35.599998474121094" height="108.56557536466774" data-palette-color="#ffffff"><path d="M37.5 0.05L37.5 0.05Q33.05 0.05 33.05-0.95L33.05-0.95 32-21 25.9-0.7Q25.7-0.1 22.5-0.1 19.3-0.1 19.2-0.65L19.2-0.65 12.9-21.2 12.2-1.25Q12.15-0.5 10.3-0.23 8.45 0.05 7.23 0.05 6 0.05 4.85-0.1L4.85-0.1Q2.45-0.45 2.5-1.35L2.5-1.35 3.65-33.85Q3.65-35.05 9.75-35.05L9.75-35.05Q11.55-35.05 14.15-34.77 16.75-34.5 17.05-33.7L17.05-33.7 22.65-17.95 27.55-33.75Q28-35.05 34.45-35.05L34.45-35.05Q36.3-35.05 38.88-34.77 41.45-34.5 41.45-33.8L41.45-33.8 42.9-1Q42.9-0.45 40.95-0.2 39 0.05 37.5 0.05ZM55.8-9L55.8 0.15Q55.8 0.5 51.07 0.5 46.35 0.5 46.35 0.2L46.35 0.2 46.35-8.8Q46.35-9.25 51.07-9.25 55.8-9.25 55.8-9L55.8-9ZM57.25-4.5L57.25-4.5Q57.25-5.95 58.1-7.88 58.95-9.8 59.95-10.5L59.95-10.5Q61.85-9.1 63.8-9.1L63.8-9.1 65.35-9.35Q68.05-10.15 68.15-13.65L68.15-13.65 68.15-26.4 64.15-26.4Q63.3-26.4 62.95-28.55L62.95-28.55Q62.8-29.6 62.8-30.7 62.8-31.8 62.95-32.85L62.95-32.85Q63.3-35 64.15-35L64.15-35 76.05-35Q77.05-35 77.55-34.43 78.05-33.85 78.05-33.05L78.05-33.05 78.05-9.45Q78.05-4.55 74.77-2 71.5 0.55 66.92 0.55 62.35 0.55 59.8-0.8 57.25-2.15 57.25-4.5Z" opacity="1" transform="matrix(1,0,0,1,0,0)" fill="#ffffff" class="wordmark-text-0" data-fill-palette-color="quaternary" id="text-0"></path></svg></g></svg></g></svg></g></svg></g></svg></g></svg></g></svg></g><defs></defs></svg><rect width="384" height="360" fill="none" stroke="none" visibility="hidden"></rect></g></svg></g></svg>